<svg width="24" height="24" viewBox="0 0 24 24" fill="none" xmlns="http://www.w3.org/2000/svg">
<path d="M18.8914 9.0784C18.5132 9.0784 18.2066 8.777 18.2066 8.4052V5.71251H15.4678C15.0896 5.71251 14.783 5.41111 14.783 5.03931C14.783 4.66751 15.0896 4.36611 15.4678 4.36611H18.2066V1.6732C18.2066 1.3014 18.5132 1 18.8914 1C19.2696 1 19.5761 1.3014 19.5761 1.6732V4.36611H22.3153C22.6934 4.36611 23 4.66751 23 5.03931C23 5.41111 22.6934 5.71251 22.3153 5.71251H19.5761V8.4052C19.5761 8.777 19.2696 9.0784 18.8914 9.0784Z" fill="#ffffff"/>
<path fill-rule="evenodd" clip-rule="evenodd" d="M19.5002 11.5094C19.8949 11.5094 20.281 11.4736 20.6555 11.4051C20.7505 11.9558 20.8 12.5221 20.8 13.1C20.8 18.5676 16.3676 23 10.9 23C5.43238 23 1 18.5676 1 13.1C1 7.63238 5.43238 3.2 10.9 3.2C11.7973 3.2 12.6666 3.31937 13.4931 3.54308C13.3177 4.11118 13.2234 4.71396 13.2234 5.33841C13.2234 8.74655 16.0336 11.5094 19.5002 11.5094ZM11.1308 21.4653C13.2927 21.4653 15.2551 20.6258 16.6993 19.2603C15.7939 17.0769 13.6417 15.5412 11.1308 15.5412C8.61988 15.5412 6.46768 17.0769 5.56225 19.2603C7.00643 20.6258 8.96888 21.4653 11.1308 21.4653ZM11.2799 7.81768C9.78854 7.9515 8.62035 9.18434 8.62035 10.6854C8.62035 12.2759 9.93179 13.5652 11.5495 13.5652C12.6276 13.5652 13.5696 12.9927 14.0781 12.1401C12.6655 11.1035 11.6462 9.57751 11.2799 7.81768Z" fill="#ffffff"/>
</svg>
