<svg width="20" height="18" viewBox="0 0 20 18" fill="none" xmlns="http://www.w3.org/2000/svg">
<path d="M2.47012 18H17.5301C19.0701 18 20.0301 16.33 19.2601 15L11.7301 1.98999C10.9601 0.659993 9.04012 0.659993 8.27012 1.98999L0.740121 15C-0.0298788 16.33 0.930121 18 2.47012 18ZM10.0001 11C9.45012 11 9.00012 10.55 9.00012 9.99999V7.99999C9.00012 7.44999 9.45012 6.99999 10.0001 6.99999C10.5501 6.99999 11.0001 7.44999 11.0001 7.99999V9.99999C11.0001 10.55 10.5501 11 10.0001 11ZM11.0001 15H9.00012V13H11.0001V15Z" fill="#737D8C"/>
</svg>
