<svg width="24" height="24" viewBox="0 0 24 24" fill="none" xmlns="http://www.w3.org/2000/svg">
<path d="M11.9699 2.22605L6 7.20093L1.5 7.20093C0.671573 7.20093 0 7.8725 0 8.70093V15.3009C0 16.1294 0.671571 16.8009 1.5 16.8009L6 16.8009L11.9699 21.7758C12.4584 22.1829 13.2 21.8355 13.2 21.1996V2.80221C13.2 2.16634 12.4584 1.81897 11.9699 2.22605Z" fill="white"/>
<path d="M17.5896 7.78682C17.2506 7.35087 16.6223 7.27234 16.1864 7.61141C15.7515 7.94959 15.6723 8.57548 16.0083 9.01128L16.0117 9.01586C16.0162 9.02185 16.0246 9.03334 16.0365 9.05007C16.0603 9.08359 16.0977 9.13784 16.1441 9.21085C16.2374 9.3574 16.3654 9.57639 16.4941 9.85222C16.7544 10.4099 17.0003 11.1627 17.0003 12.0008C17.0003 12.8388 16.7544 13.5916 16.4941 14.1493C16.3654 14.4251 16.2374 14.6441 16.1441 14.7907C16.0977 14.8637 16.0603 14.9179 16.0365 14.9514C16.0246 14.9682 16.0162 14.9797 16.0117 14.9857L16.0083 14.9903C15.6723 15.4261 15.7515 16.0519 16.1864 16.3901C16.6223 16.7292 17.2506 16.6506 17.5896 16.2147L16.8003 15.6008C17.5896 16.2147 17.5896 16.2147 17.5896 16.2147L17.5914 16.2124L17.5936 16.2095L17.5994 16.2021L17.6158 16.1802C17.6289 16.1626 17.6463 16.1389 17.6672 16.1094C17.709 16.0505 17.7654 15.9682 17.8315 15.8644C17.9632 15.6574 18.1352 15.3621 18.3065 14.9951C18.6462 14.267 19.0003 13.2199 19.0003 12.0008C19.0003 10.7816 18.6462 9.73448 18.3065 9.00645C18.1352 8.63942 17.9632 8.34412 17.8315 8.1371C17.7654 8.03333 17.709 7.95097 17.6672 7.89207C17.6463 7.8626 17.6289 7.83893 17.6158 7.82132L17.5994 7.79946L17.5936 7.79198L17.5914 7.78911L17.5905 7.78789C17.5905 7.78789 17.5896 7.78682 16.8003 8.40076L17.5896 7.78682Z" fill="white"/>
</svg>
