<svg width="24" height="24" viewBox="0 0 24 24" fill="none" xmlns="http://www.w3.org/2000/svg">
<path d="M11.9699 2.22605L6 7.20093L1.5 7.20093C0.671573 7.20093 0 7.8725 0 8.70093V15.3009C0 16.1294 0.671571 16.8009 1.5 16.8009L6 16.8009L11.9699 21.7758C12.4584 22.1829 13.2 21.8355 13.2 21.1996V2.80221C13.2 2.16634 12.4584 1.81897 11.9699 2.22605Z" fill="white"/>
<path d="M21.1888 4.1866C20.8497 3.75065 20.2214 3.67212 19.7855 4.01119C19.35 4.34988 19.2712 4.97715 19.6089 5.41304L19.6097 5.41402L19.6107 5.41531L19.6243 5.43347C19.6376 5.45126 19.6589 5.48033 19.6872 5.52017C19.7438 5.59988 19.828 5.72244 19.9308 5.88385C20.1365 6.20718 20.4145 6.68332 20.6932 7.28057C21.2535 8.48111 21.7994 10.134 21.7994 12.0005C21.7994 13.8671 21.2535 15.52 20.6932 16.7205C20.4145 17.3178 20.1365 17.7939 19.9308 18.1172C19.828 18.2786 19.7438 18.4012 19.6872 18.4809C19.6589 18.5208 19.6376 18.5498 19.6243 18.5676L19.6107 18.5858L19.6097 18.5871L19.6088 18.5882C19.2712 19.0241 19.3501 19.6512 19.7855 19.9899C20.2214 20.329 20.8497 20.2504 21.1888 19.8145L20.4435 19.2348C21.1888 19.8145 21.1888 19.8145 21.1888 19.8145L21.1908 19.8119L21.1936 19.8082L21.2019 19.7974L21.2284 19.7621C21.2503 19.7327 21.2805 19.6915 21.3179 19.6389C21.3925 19.5338 21.4958 19.3832 21.6181 19.191C21.8623 18.8072 22.1843 18.2547 22.5056 17.5663C23.1453 16.1954 23.7994 14.2482 23.7994 12.0005C23.7994 9.75284 23.1453 7.80569 22.5056 6.4348C22.1843 5.74634 21.8623 5.1939 21.6181 4.81009C21.4958 4.61793 21.3925 4.46727 21.3179 4.36217C21.2805 4.30959 21.2503 4.26835 21.2284 4.23893L21.2019 4.20373L21.1936 4.19288L21.1908 4.18917L21.1897 4.18774C21.1897 4.18774 21.1888 4.1866 20.3994 4.80054L21.1888 4.1866Z" fill="white"/>
<path d="M17.5896 7.78682C17.2506 7.35087 16.6223 7.27234 16.1864 7.61141C15.7515 7.94959 15.6723 8.57548 16.0083 9.01128L16.0117 9.01586C16.0162 9.02185 16.0246 9.03334 16.0365 9.05007C16.0603 9.08359 16.0977 9.13784 16.1441 9.21085C16.2374 9.3574 16.3654 9.57639 16.4941 9.85222C16.7544 10.4099 17.0003 11.1627 17.0003 12.0008C17.0003 12.8388 16.7544 13.5916 16.4941 14.1493C16.3654 14.4251 16.2374 14.6441 16.1441 14.7907C16.0977 14.8637 16.0603 14.9179 16.0365 14.9514C16.0246 14.9682 16.0162 14.9797 16.0117 14.9857L16.0083 14.9903C15.6723 15.4261 15.7515 16.0519 16.1864 16.3901C16.6223 16.7292 17.2506 16.6506 17.5896 16.2147L16.8003 15.6008C17.5896 16.2147 17.5896 16.2147 17.5896 16.2147L17.5914 16.2124L17.5936 16.2095L17.5994 16.2021L17.6158 16.1802C17.6289 16.1626 17.6463 16.1389 17.6672 16.1094C17.709 16.0505 17.7654 15.9682 17.8315 15.8644C17.9632 15.6574 18.1352 15.3621 18.3065 14.9951C18.6462 14.267 19.0003 13.2199 19.0003 12.0008C19.0003 10.7816 18.6462 9.73448 18.3065 9.00645C18.1352 8.63942 17.9632 8.34412 17.8315 8.1371C17.7654 8.03333 17.709 7.95097 17.6672 7.89207C17.6463 7.8626 17.6289 7.83893 17.6158 7.82132L17.5994 7.79946L17.5936 7.79198L17.5914 7.78911L17.5905 7.78789C17.5905 7.78789 17.5896 7.78682 16.8003 8.40076L17.5896 7.78682Z" fill="white"/>
</svg>
