<svg width="24" height="24" viewBox="0 0 24 24" fill="none" xmlns="http://www.w3.org/2000/svg">
<path fill-rule="evenodd" clip-rule="evenodd" d="M2.63174 0.583224C2.15798 0.109466 1.38987 0.109466 0.91611 0.583224C0.442351 1.05698 0.442351 1.8251 0.91611 2.29885L5.3958 6.77855H5.37083L15.3629 16.7706V16.7456L20.7144 22.0972C21.1882 22.5709 21.9563 22.5709 22.4301 22.0972C22.9038 21.6234 22.9038 20.8553 22.4301 20.3816L2.63174 0.583224ZM15.3629 3.23319V9.88521L10.2275 4.74987L13.2404 2.2391C14.0833 1.53675 15.3629 2.13608 15.3629 3.23319ZM4.07191 16.8718H7.7929V16.872L13.2404 21.4116C14.0833 22.114 15.3629 21.5146 15.3629 20.4175V20.2018L2.4839 7.32287C1.87536 7.79641 1.48389 8.53577 1.48389 9.36657V14.2838C1.48389 15.7131 2.64258 16.8718 4.07191 16.8718Z" fill="white"/>
</svg>
