<svg width="22" height="20" viewBox="0 0 22 20" fill="none" xmlns="http://www.w3.org/2000/svg">
<path d="M20.2758 2.69628C20.8924 2.07969 20.8924 1.08 20.2758 0.463417C19.6592 -0.15317 18.6596 -0.15317 18.043 0.463417L10.8919 7.61447L3.74087 0.463417C3.12429 -0.15317 2.1246 -0.15317 1.50802 0.463417C0.891428 1.08 0.891428 2.07969 1.50802 2.69628L8.65907 9.84733L1.2017 17.3047C0.585111 17.9213 0.585111 18.921 1.2017 19.5376C1.81829 20.1541 2.81797 20.1541 3.43456 19.5376L10.8919 12.0802L18.3493 19.5375C18.9659 20.1541 19.9656 20.1541 20.5822 19.5375C21.1987 18.921 21.1987 17.9213 20.5822 17.3047L13.1248 9.84732L20.2758 2.69628Z" fill="#6F7882"/>
</svg>
