<svg width="21" height="24" viewBox="0 0 21 24" fill="none" xmlns="http://www.w3.org/2000/svg">
<path fill-rule="evenodd" clip-rule="evenodd" d="M6.03125 3C4.3744 3 3.03125 4.34315 3.03125 6V13C3.03125 14.6569 4.3744 16 6.03125 16H7.07407V18C7.07407 19.6569 8.41722 21 10.0741 21H14.9683C16.6251 21 17.9683 19.6569 17.9683 18V11C17.9683 9.34315 16.6251 8 14.9683 8H13.9255V6C13.9255 4.34315 12.5823 3 10.9255 3H6.03125ZM11.9255 8V6C11.9255 5.44772 11.4777 5 10.9255 5H6.03125C5.47897 5 5.03125 5.44772 5.03125 6V13C5.03125 13.5523 5.47897 14 6.03125 14H7.07407V11C7.07407 9.34315 8.41722 8 10.0741 8H11.9255ZM9.07407 11C9.07407 10.4477 9.52179 10 10.0741 10H14.9683C15.5206 10 15.9683 10.4477 15.9683 11V18C15.9683 18.5523 15.5206 19 14.9683 19H10.0741C9.52179 19 9.07407 18.5523 9.07407 18V11Z" fill="#0DBD8B"/>
</svg>
