<svg width="16" height="16" viewBox="0 0 16 16" fill="none" xmlns="http://www.w3.org/2000/svg">
<path fill-rule="evenodd" clip-rule="evenodd" d="M4 2C2.89543 2 2 2.89543 2 4V8.66667C2 9.77124 2.89543 10.6667 4 10.6667H5.33333V12C5.33333 13.1046 6.22877 14 7.33333 14H12C13.1046 14 14 13.1046 14 12V7.33333C14 6.22876 13.1046 5.33333 12 5.33333H10.6667V4C10.6667 2.89543 9.77123 2 8.66667 2H4ZM9.33333 5.33333V4C9.33333 3.63181 9.03486 3.33333 8.66667 3.33333H4C3.63181 3.33333 3.33333 3.63181 3.33333 4V8.66667C3.33333 9.03486 3.63181 9.33333 4 9.33333H5.33333V7.33333C5.33333 6.22877 6.22876 5.33333 7.33333 5.33333H9.33333ZM6.66667 7.33333C6.66667 6.96514 6.96514 6.66667 7.33333 6.66667H12C12.3682 6.66667 12.6667 6.96514 12.6667 7.33333V12C12.6667 12.3682 12.3682 12.6667 12 12.6667H7.33333C6.96514 12.6667 6.66667 12.3682 6.66667 12V7.33333Z" fill="#8E99A4"/>
</svg>
