<svg width="12" height="12" viewBox="0 0 12 12" fill="none" xmlns="http://www.w3.org/2000/svg">
<path d="M2.64856 7.35501C2.65473 7.31601 2.67231 7.27972 2.69908 7.25069L8.40377 1.06442C8.47865 0.983217 8.60518 0.978093 8.68638 1.05297L9.8626 2.13763C9.9438 2.21251 9.94893 2.33904 9.87405 2.42024L4.16936 8.60651C4.1426 8.63554 4.10783 8.656 4.06946 8.6653L2.66781 9.00511C2.52911 9.03873 2.40084 8.92044 2.42315 8.77948L2.64856 7.35501Z" fill="white"/>
<path d="M1.75 9.44346C1.33579 9.44346 1 9.77925 1 10.1935C1 10.6077 1.33579 10.9435 1.75 10.9435L10.75 10.9435C11.1642 10.9435 11.5 10.6077 11.5 10.1935C11.5 9.77925 11.1642 9.44346 10.75 9.44346L1.75 9.44346Z" fill="white"/>
</svg>
