<svg width="24" height="24" viewBox="0 0 24 24" fill="none" xmlns="http://www.w3.org/2000/svg">
<path d="M21.29 4.12L16.7 8.71L18.29 10.3C18.92 10.93 18.47 12.01 17.58 12.01H13C12.45 12.01 12 11.56 12 11.01V6.41C12 5.52 13.08 5.07 13.71 5.7L15.3 7.29L19.89 2.7C20.28 2.31 20.91 2.31 21.3 2.7C21.68 3.1 21.68 3.73 21.29 4.12ZM4.11997 21.29L8.70997 16.7L10.3 18.29C10.93 18.92 12.01 18.47 12.01 17.58V13C12.01 12.45 11.56 12 11.01 12H6.40997C5.51997 12 5.06997 13.08 5.69997 13.71L7.28997 15.3L2.69997 19.89C2.30997 20.28 2.30997 20.91 2.69997 21.3C3.09997 21.68 3.72997 21.68 4.11997 21.29Z" fill="white"/>
</svg>
