<svg width="20" height="20" viewBox="0 0 20 20" fill="none" xmlns="http://www.w3.org/2000/svg">
<path d="M10.007 6.46375C8.60094 6.4097 5.70947 6.77458 5.00651 6.95945C4.96493 6.97038 4.91704 6.98261 4.86347 6.99628C3.78418 7.27174 0.402266 8.13487 0.0368686 10.8697C-0.246222 12.9885 1.17146 13.6298 1.88015 13.5322C2.37066 13.4707 3.77508 13.2486 5.0727 13.0158C6.34691 12.7872 6.34626 11.9466 6.34582 11.3782C6.34581 11.3677 6.34581 11.3574 6.34581 11.3471L6.34581 10.2044C6.34581 9.91339 6.61929 9.74516 6.9965 9.69969C8.33185 9.51831 9.44662 9.5178 10.0046 9.51779L10.0093 9.51779C10.5672 9.51779 11.6682 9.51832 13.0035 9.6997C13.3807 9.74517 13.6542 9.9134 13.6542 10.2044L13.6542 11.3471C13.6542 11.3574 13.6542 11.3677 13.6542 11.3782C13.6537 11.9466 13.6531 12.7872 14.9273 13.0158C16.2249 13.2486 17.6293 13.4707 18.1198 13.5322C18.8285 13.6298 20.2462 12.9885 19.9631 10.8697C19.5977 8.13487 16.2158 7.27174 15.1365 6.99629C15.083 6.98262 15.0351 6.97039 14.9935 6.95946C14.2905 6.77459 11.413 6.4097 10.007 6.46375Z" fill="white"/>
</svg>
