<svg width="20" height="20" viewBox="0 0 20 20" fill="none" xmlns="http://www.w3.org/2000/svg">
<path d="M6.68883 13.3012C7.63969 14.3278 9.92871 16.1054 10.5526 16.4702C10.5895 16.4917 10.6317 16.5168 10.679 16.5449C11.631 17.1109 14.6141 18.8842 16.7875 17.2246C18.4714 15.9389 17.9239 14.4926 17.3571 14.0626C16.9691 13.7608 15.8258 12.9288 14.7502 12.1795C13.694 11.4436 13.1053 12.0332 12.7073 12.4318C12.7 12.4391 12.6927 12.4464 12.6856 12.4536L11.8848 13.2544C11.6808 13.4583 11.3706 13.3839 11.0735 13.1505C10.0074 12.3385 9.22308 11.555 8.8307 11.1626L8.82739 11.1593C8.43506 10.767 7.66123 9.99241 6.84932 8.92627C6.61592 8.62914 6.54149 8.31893 6.74542 8.11501L7.54622 7.31421C7.55341 7.30702 7.56067 7.29977 7.568 7.29245C7.96663 6.89444 8.55618 6.30581 7.82033 5.24958C7.07097 4.17394 6.239 3.03068 5.93717 2.64265C5.50723 2.07588 4.06088 1.52836 2.77514 3.21225C1.11556 5.38572 2.88891 8.36878 3.45484 9.32078C3.48293 9.36803 3.50805 9.41028 3.52962 9.44717C3.8944 10.0711 5.66224 12.3503 6.68883 13.3012Z" fill="white"/>
<path d="M17.2473 2.56504C17.4497 2.3595 17.4497 2.02626 17.2473 1.82072C17.0448 1.61518 16.7166 1.61518 16.5142 1.82072L14.1663 4.20452L11.8185 1.82072C11.6161 1.61518 11.2878 1.61518 11.0854 1.82072C10.883 2.02626 10.883 2.3595 11.0854 2.56504L13.4332 4.94884L10.9848 7.43475C10.7824 7.64029 10.7824 7.97354 10.9848 8.17908C11.1873 8.38462 11.5155 8.38462 11.7179 8.17908L14.1663 5.69316L16.6148 8.17907C16.8172 8.38461 17.1454 8.38461 17.3478 8.17907C17.5503 7.97354 17.5503 7.64029 17.3478 7.43475L14.8994 4.94884L17.2473 2.56504Z" fill="white"/>
</svg>
