<svg width="16" height="16" viewBox="0 0 16 16" fill="none" xmlns="http://www.w3.org/2000/svg">
<path d="M4.00003 14.6665C3.63336 14.6665 3.31947 14.5359 3.05836 14.2748C2.79725 14.0137 2.6667 13.6998 2.6667 13.3332V6.6665C2.6667 6.29984 2.79725 5.98595 3.05836 5.72484C3.19921 5.58399 3.35541 5.48113 3.52697 5.41626L0.888621 2.77791C0.628272 2.51756 0.628272 2.09545 0.888622 1.8351C1.14897 1.57475 1.57108 1.57475 1.83143 1.8351L4.6667 4.67037V4.66267L13.3334 13.3293V13.3332L13.3334 13.337L14.1648 14.1685C14.4251 14.4288 14.4251 14.8509 14.1648 15.1113C13.9044 15.3716 13.4823 15.3716 13.222 15.1113L12.6247 14.514C12.437 14.6157 12.2288 14.6665 12 14.6665H4.00003Z" fill="#808994"/>
<path d="M13.3334 11.4437V6.6665C13.3334 6.29984 13.2028 5.98595 12.9417 5.72484C12.6806 5.46373 12.3667 5.33317 12 5.33317H11.3334V3.99984C11.3334 3.07762 11.0084 2.2915 10.3584 1.6415C9.70836 0.991504 8.92225 0.666504 8.00003 0.666504C7.07781 0.666504 6.2917 0.991504 5.6417 1.6415C5.25683 2.02637 4.9859 2.45896 4.82892 2.93927L6.00003 4.11038V3.99984C6.00003 3.44428 6.19447 2.97206 6.58336 2.58317C6.97225 2.19428 7.44447 1.99984 8.00003 1.99984C8.55559 1.99984 9.02781 2.19428 9.4167 2.58317C9.80558 2.97206 10 3.44428 10 3.99984V5.33317H7.22282L13.3334 11.4437Z" fill="#808994"/>
</svg>
