<svg width="24" height="24" viewBox="0 0 24 24" fill="none" xmlns="http://www.w3.org/2000/svg">
<path fill-rule="evenodd" clip-rule="evenodd" d="M7.49966 2.38889C7.49966 1.89797 7.89763 1.5 8.38855 1.5H20.1108C20.6017 1.5 20.9997 1.89797 20.9997 2.38889V21.6111C20.9997 22.102 20.6017 22.5 20.1108 22.5H8.38855C7.89763 22.5 7.49966 22.102 7.49966 21.6111V12.6667H7.49089H7.4821H7.47331H7.46452H7.45573H7.44694H7.43815H7.42936H7.42057H7.41178H7.403H7.39421H7.38542H7.37663H7.36784H7.35905H7.35026H7.34147H7.33268H7.32389H7.3151H7.30632H7.29753H7.28874H7.27995H7.27116H7.26237H7.25358H7.24479H7.236H7.22721H7.21842H7.20964H7.20085H7.19206H7.18327H7.17448H7.16569H7.1569H7.14811H7.13932H7.13053H7.12175H7.11296H7.10417H7.09538H7.08659H7.0778H7.06901H7.06022H7.05143H7.04264H7.03385H7.02507H7.01628H7.00749H6.9987H6.98991H6.98112H6.97233H6.96354H6.95475H6.94596H6.93717H6.92839H6.9196H6.91081H6.90202H6.89323H6.88444H6.87565H6.86686H6.85807H6.84928H6.8405H6.83171H6.82292H6.81413H6.80534H6.79655H6.78776H6.77897H6.77018H6.76139H6.7526H6.74382H6.73503H6.72624H6.71745H6.70866H6.69987H6.69108H6.68229H6.6735H6.66471H6.65592H6.64714H6.63835H6.62956H6.62077H6.61198H6.60319H6.5944H6.58561H6.57682H6.56803H6.55925H6.55046H6.54167H6.53288H6.52409H6.5153H6.50651H6.49772H6.48893H6.48014H6.47135H6.46257H6.45378H6.44499H6.4362H6.42741H6.41862H6.40983H6.40104H6.39225H6.38346H6.37467H6.36589H6.3571H6.34831H6.33952H6.33073H6.32194H6.31315H6.30436H6.29557H6.28678H6.27799H6.26921H6.26042H6.25163H6.24284H6.23405H6.22526H6.21647H6.20768H6.19889H6.1901H6.18132H6.17253H6.16374H6.15495H6.14616H6.13737H6.12858H6.11979H6.111H6.10221H6.09342H6.08464H6.07585H6.06706H6.05827H6.04948H6.04069H6.0319H6.02311H6.01432H6.00553H5.99674H5.98796H5.97917H5.97038H5.96159H5.9528H5.94401H5.93522H5.92643H5.91764H5.90885H5.90007H5.89128H5.88249H5.8737H5.86491H5.85612H5.84733H5.83854H5.82975H5.82096H5.81217H5.80339H5.7946H5.78581H5.77702H5.76823H5.75944H5.75065H5.74186H5.73307H5.72428H5.71549H5.70671H5.69792H5.68913H5.68034H5.67155H5.66276H5.65397H5.64518H5.63639H5.6276H5.61882H5.61003H5.60124H5.59245H5.58366H5.57487H5.56608H5.55729H5.5485H5.53971H5.53092H5.52214H5.51335H5.50456H5.49577H5.48698H5.47819H5.4694H5.46061H5.45182H5.44303H5.43424H5.42546H5.41667H5.40788H5.39909H5.3903H5.38151H5.37272H5.36393H5.35514H5.34635H5.33757H5.32878H5.31999H5.3112H5.30241H5.29362H5.28483H5.27604H5.26725H5.25846H5.24967H5.24089H5.2321H5.22331H5.21452H5.20573H5.19694H5.18815H5.17936H5.17057H5.16178H5.15299H5.14421H5.13542H5.12663H5.11784H5.10905H5.10026H5.09147H5.08268H5.07389H5.0651H5.05632H5.04753H5.03874H5.02995H5.02116H5.01237H5.00358H4.99479H4.986H4.97721H4.96842H4.95964H4.95085H4.94206H4.93327H4.92448H4.91569H4.9069H4.89811H4.88932H4.88053H4.87174H4.86296H4.85417H4.84538H4.83659H4.8278H4.81901H4.81022H4.80143H4.79264H4.78385H4.77507H4.76628H4.75749H4.7487H4.73991H4.73112H4.72233H4.71354H4.70475H4.69596H4.68717H4.67839H4.6696H4.66081H4.65202H4.64323H4.63444H4.62565H4.61686H4.60807H4.59928H4.59049H4.58171H4.57292H4.56413H4.55534H4.54655H4.53776H4.52897H4.52018H4.51139H4.5026H4.49382H4.48503H4.47624H4.46745H4.45866H4.44987H4.44108H4.43229H4.4235H4.41471H4.40592H4.39714H4.38835H4.37956H4.37077H4.36198H4.35319H4.3444H4.33561H4.32682H4.31803H4.30924H4.30046H4.29167H4.28288H4.27409H4.2653H4.25651H4.24772H4.23893H4.23014H4.22135H4.21257H4.20378H4.19499H4.1862H4.17741H4.16862H4.15983H4.15104H4.14225H4.13346H4.12467H4.11589H4.1071H4.09831H4.08952H4.08073H4.07194H4.06315H4.05436H4.04557H4.03678H4.02799H4.01921H4.01042H4.00163H3.99284H3.98405H3.97526H3.96647H3.95768H3.94889H3.9401H3.93132H3.92253H3.91374H3.90495H3.89616H3.88737H3.87858H3.86979H3.861H3.85221H3.84342H3.83464H3.82585H3.81706H3.80827H3.79948H3.79069H3.7819H3.77311H3.76432H3.75553H3.74674H3.73796H3.72917H3.72038H3.71159H3.7028H3.69401H3.68522H3.67643H3.66764H3.65885H3.65007H3.64128H3.63249H3.6237H3.61491H3.60612H3.59733H3.58854H3.57975H3.57096H3.56217H3.55339H3.5446H3.53581H3.52702H3.51823H3.50944H3.50065H3.49186H3.48307H3.47428H3.46549H3.45671H3.44792H3.43913H3.43034H3.42155H3.41276H3.40397H3.39518H3.38639H3.3776H3.36882H3.36003H3.35124H3.34245H3.33366H3.32487H3.31608H3.30729H3.2985H3.28971H3.28092H3.27214H3.26335H3.25456H3.24577H3.23698H3.22819H3.2194H3.21061H3.20182H3.19303H3.18424H3.17546H3.16667H3.15788H3.14909H3.1403H3.13151H3.12272H3.11393H3.10514H3.09635H3.08757H3.07878H3.06999H3.0612H3.05241H3.04362H3.03483H3.02604H3.01725H3.00846H2.99967C2.63148 12.6667 2.33301 12.3682 2.33301 12C2.33301 11.6318 2.63148 11.3333 2.99967 11.3333H3.00846H3.01725H3.02604H3.03483H3.04362H3.05241H3.0612H3.06999H3.07878H3.08757H3.09635H3.10514H3.11393H3.12272H3.13151H3.1403H3.14909H3.15788H3.16667H3.17546H3.18424H3.19303H3.20182H3.21061H3.2194H3.22819H3.23698H3.24577H3.25456H3.26335H3.27214H3.28092H3.28971H3.2985H3.30729H3.31608H3.32487H3.33366H3.34245H3.35124H3.36003H3.36882H3.3776H3.38639H3.39518H3.40397H3.41276H3.42155H3.43034H3.43913H3.44792H3.45671H3.46549H3.47428H3.48307H3.49186H3.50065H3.50944H3.51823H3.52702H3.53581H3.5446H3.55339H3.56217H3.57096H3.57975H3.58854H3.59733H3.60612H3.61491H3.6237H3.63249H3.64128H3.65007H3.65885H3.66764H3.67643H3.68522H3.69401H3.7028H3.71159H3.72038H3.72917H3.73796H3.74674H3.75553H3.76432H3.77311H3.7819H3.79069H3.79948H3.80827H3.81706H3.82585H3.83464H3.84342H3.85221H3.861H3.86979H3.87858H3.88737H3.89616H3.90495H3.91374H3.92253H3.93132H3.9401H3.94889H3.95768H3.96647H3.97526H3.98405H3.99284H4.00163H4.01042H4.01921H4.02799H4.03678H4.04557H4.05436H4.06315H4.07194H4.08073H4.08952H4.09831H4.1071H4.11589H4.12467H4.13346H4.14225H4.15104H4.15983H4.16862H4.17741H4.1862H4.19499H4.20378H4.21257H4.22135H4.23014H4.23893H4.24772H4.25651H4.2653H4.27409H4.28288H4.29167H4.30046H4.30924H4.31803H4.32682H4.33561H4.3444H4.35319H4.36198H4.37077H4.37956H4.38835H4.39714H4.40592H4.41471H4.4235H4.43229H4.44108H4.44987H4.45866H4.46745H4.47624H4.48503H4.49382H4.5026H4.51139H4.52018H4.52897H4.53776H4.54655H4.55534H4.56413H4.57292H4.58171H4.59049H4.59928H4.60807H4.61686H4.62565H4.63444H4.64323H4.65202H4.66081H4.6696H4.67839H4.68717H4.69596H4.70475H4.71354H4.72233H4.73112H4.73991H4.7487H4.75749H4.76628H4.77507H4.78385H4.79264H4.80143H4.81022H4.81901H4.8278H4.83659H4.84538H4.85417H4.86296H4.87174H4.88053H4.88932H4.89811H4.9069H4.91569H4.92448H4.93327H4.94206H4.95085H4.95964H4.96842H4.97721H4.986H4.99479H5.00358H5.01237H5.02116H5.02995H5.03874H5.04753H5.05631H5.0651H5.07389H5.08268H5.09147H5.10026H5.10905H5.11784H5.12663H5.13542H5.14421H5.15299H5.16178H5.17057H5.17936H5.18815H5.19694H5.20573H5.21452H5.22331H5.2321H5.24089H5.24967H5.25846H5.26725H5.27604H5.28483H5.29362H5.30241H5.3112H5.31999H5.32878H5.33757H5.34635H5.35514H5.36393H5.37272H5.38151H5.3903H5.39909H5.40788H5.41667H5.42546H5.43424H5.44303H5.45182H5.46061H5.4694H5.47819H5.48698H5.49577H5.50456H5.51335H5.52214H5.53092H5.53971H5.5485H5.55729H5.56608H5.57487H5.58366H5.59245H5.60124H5.61003H5.61882H5.6276H5.63639H5.64518H5.65397H5.66276H5.67155H5.68034H5.68913H5.69792H5.70671H5.71549H5.72428H5.73307H5.74186H5.75065H5.75944H5.76823H5.77702H5.78581H5.7946H5.80339H5.81217H5.82096H5.82975H5.83854H5.84733H5.85612H5.86491H5.8737H5.88249H5.89128H5.90007H5.90885H5.91764H5.92643H5.93522H5.94401H5.9528H5.96159H5.97038H5.97917H5.98796H5.99674H6.00553H6.01432H6.02311H6.0319H6.04069H6.04948H6.05827H6.06706H6.07585H6.08464H6.09342H6.10221H6.111H6.11979H6.12858H6.13737H6.14616H6.15495H6.16374H6.17253H6.18132H6.1901H6.19889H6.20768H6.21647H6.22526H6.23405H6.24284H6.25163H6.26042H6.26921H6.27799H6.28678H6.29557H6.30436H6.31315H6.32194H6.33073H6.33952H6.34831H6.3571H6.36589H6.37467H6.38346H6.39225H6.40104H6.40983H6.41862H6.42741H6.4362H6.44499H6.45378H6.46257H6.47135H6.48014H6.48893H6.49772H6.50651H6.5153H6.52409H6.53288H6.54167H6.55046H6.55925H6.56803H6.57682H6.58561H6.5944H6.60319H6.61198H6.62077H6.62956H6.63835H6.64714H6.65592H6.66471H6.6735H6.68229H6.69108H6.69987H6.70866H6.71745H6.72624H6.73503H6.74382H6.7526H6.76139H6.77018H6.77897H6.78776H6.79655H6.80534H6.81413H6.82292H6.83171H6.8405H6.84928H6.85807H6.86686H6.87565H6.88444H6.89323H6.90202H6.91081H6.9196H6.92839H6.93717H6.94596H6.95475H6.96354H6.97233H6.98112H6.98991H6.9987H7.00749H7.01628H7.02507H7.03385H7.04264H7.05143H7.06022H7.06901H7.0778H7.08659H7.09538H7.10417H7.11296H7.12175H7.13053H7.13932H7.14811H7.1569H7.16569H7.17448H7.18327H7.19206H7.20085H7.20964H7.21842H7.22721H7.236H7.24479H7.25358H7.26237H7.27116H7.27995H7.28874H7.29753H7.30632H7.3151H7.32389H7.33268H7.34147H7.35026H7.35905H7.36784H7.37663H7.38542H7.39421H7.403H7.41178H7.42057H7.42936H7.43815H7.44694H7.45573H7.46452H7.47331H7.4821H7.49089H7.49966V2.38889ZM13.3687 6.24853C13.1172 5.9796 12.7095 5.9796 12.458 6.24853C12.2065 6.51747 12.2065 6.9535 12.458 7.22243L16.3022 11.3336L16.2894 11.3336L16.2726 11.3336L16.2558 11.3336L16.239 11.3335L16.2223 11.3335L16.2055 11.3335L16.1887 11.3335L16.1719 11.3335L16.1552 11.3334L16.1384 11.3334L16.1216 11.3334L16.1048 11.3334L16.088 11.3334L16.0713 11.3333L16.0545 11.3333L16.0377 11.3333L16.0209 11.3333L16.0041 11.3333L15.9874 11.3332L15.9706 11.3332L15.9538 11.3332L15.937 11.3332L15.9202 11.3332L15.9035 11.3331L15.8867 11.3331L15.8699 11.3331L15.8531 11.3331L15.8364 11.3331L15.8196 11.333L15.8028 11.333L15.786 11.333L15.7692 11.333L15.7525 11.333L15.7357 11.3329L15.7189 11.3329L15.7021 11.3329L15.6853 11.3329L15.6686 11.3329L15.6518 11.3328L15.635 11.3328L15.6182 11.3328L15.6014 11.3328L15.5847 11.3328L15.5679 11.3327L15.5511 11.3327L15.5343 11.3327L15.5175 11.3327L15.5008 11.3327L15.484 11.3326L15.4672 11.3326L15.4504 11.3326L15.4337 11.3326L15.4169 11.3326L15.4001 11.3325L15.3833 11.3325L15.3665 11.3325L15.3498 11.3325L15.333 11.3324L15.3162 11.3324L15.2994 11.3324L15.2826 11.3324L15.2659 11.3324L15.2491 11.3323L15.2323 11.3323L15.2155 11.3323L15.1987 11.3323L15.182 11.3323L15.1652 11.3322L15.1484 11.3322L15.1316 11.3322L15.1148 11.3322L15.0981 11.3322L15.0813 11.3321L15.0645 11.3321L15.0477 11.3321L15.031 11.3321L15.0142 11.3321L14.9974 11.332L14.9806 11.332L14.9638 11.332L14.9471 11.332L14.9303 11.332L14.9135 11.3319L14.8967 11.3319L14.8799 11.3319L14.8632 11.3319L14.8464 11.3319L14.8296 11.3318L14.8128 11.3318L14.796 11.3318L14.7793 11.3318L14.7625 11.3318L14.7457 11.3317L14.7289 11.3317L14.7122 11.3317L14.6954 11.3317L14.6786 11.3317L14.6618 11.3316L14.645 11.3316L14.6283 11.3316L14.6115 11.3316L14.5947 11.3316L14.5779 11.3315L14.5611 11.3315L14.5444 11.3315L14.5276 11.3315L14.5108 11.3315L14.494 11.3314L14.4772 11.3314L14.4605 11.3314L14.4437 11.3314L14.4269 11.3314L14.4101 11.3313L14.3933 11.3313L14.3766 11.3313L14.3598 11.3313L14.343 11.3313L14.3262 11.3312L14.3095 11.3312L14.2927 11.3312L14.2759 11.3312L14.2591 11.3312L14.2423 11.3311L14.2256 11.3311L14.2088 11.3311L14.192 11.3311L14.1752 11.3311L14.1584 11.331L14.1417 11.331L14.1249 11.331L14.1081 11.331L14.0913 11.331L14.0745 11.3309L14.0578 11.3309L14.041 11.3309L14.0242 11.3309L14.0074 11.3309L13.9906 11.3308L13.9739 11.3308L13.9571 11.3308L13.9403 11.3308L13.9235 11.3308L13.9068 11.3307L13.89 11.3307L13.8732 11.3307L13.8564 11.3307L13.8396 11.3307L13.8229 11.3306L13.8061 11.3306L13.7893 11.3306L13.7725 11.3306L13.7557 11.3306L13.739 11.3305L13.7222 11.3305L13.7054 11.3305L13.6886 11.3305L13.6718 11.3305L13.6551 11.3304L13.6383 11.3304L13.6215 11.3304L13.6047 11.3304L13.5879 11.3304L13.5712 11.3303L13.5544 11.3303L13.5376 11.3303L13.5208 11.3303L13.5041 11.3303L13.4873 11.3302L13.4705 11.3302L13.4537 11.3302L13.4369 11.3302L13.4202 11.3302L13.4034 11.3301L13.3866 11.3301L13.3698 11.3301L13.353 11.3301L13.3363 11.33L13.3195 11.33L13.3027 11.33L13.2859 11.33L13.2691 11.33L13.2524 11.3299L13.2356 11.3299L13.2188 11.3299L13.202 11.3299L13.1853 11.3299L13.1685 11.3298L13.1517 11.3298L13.1349 11.3298L13.1181 11.3298L13.1014 11.3298L13.0846 11.3297L13.0678 11.3297L13.051 11.3297L13.0342 11.3297L13.0175 11.3297L13.0007 11.3296L12.9839 11.3296L12.9671 11.3296L12.9503 11.3296L12.9336 11.3296L12.9168 11.3295L12.9 11.3295L12.8832 11.3295L12.8664 11.3295L12.8497 11.3295L12.8329 11.3294L12.8161 11.3294L12.7993 11.3294L12.7826 11.3294L12.7658 11.3294L12.749 11.3293L12.7322 11.3293L12.7154 11.3293L12.6987 11.3293L12.6819 11.3293L12.6651 11.3292L12.6483 11.3292L12.6315 11.3292L12.6148 11.3292L12.598 11.3292L12.5812 11.3291L12.5644 11.3291L12.5476 11.3291L12.5309 11.3291L12.5141 11.3291L12.4973 11.329L12.4805 11.329L12.4637 11.329L12.447 11.329L12.4302 11.329L12.4134 11.3289L12.3966 11.3289L12.3799 11.3289L12.3631 11.3289L12.3463 11.3289L12.3295 11.3288L12.3127 11.3288L12.296 11.3288L12.2792 11.3288L12.2624 11.3288L12.2456 11.3287L12.2288 11.3287L12.2121 11.3287L12.1953 11.3287L12.1785 11.3287L12.1617 11.3286L12.1449 11.3286L12.1282 11.3286L12.1114 11.3286L12.0946 11.3286L12.0778 11.3285L12.0611 11.3285L12.0443 11.3285L12.0275 11.3285L12.0107 11.3285L11.9939 11.3284L11.9772 11.3284L11.9604 11.3284L11.9436 11.3284L11.9268 11.3284L11.91 11.3283L11.8933 11.3283L11.8765 11.3283L11.8597 11.3283L11.8429 11.3283L11.8261 11.3282L11.8094 11.3282L11.7926 11.3282L11.7758 11.3282L11.759 11.3282L11.7422 11.3281L11.7255 11.3281L11.7087 11.3281L11.6919 11.3281L11.6751 11.3281L11.6583 11.328L11.6416 11.328L11.6248 11.328L11.608 11.328L11.5912 11.328L11.5745 11.3279L11.5577 11.3279L11.5409 11.3279L11.5241 11.3279L11.5073 11.3279L11.4906 11.3278L11.4738 11.3278L11.457 11.3278L11.4402 11.3278L11.4234 11.3278L11.4067 11.3277L11.3899 11.3277L11.3731 11.3277L11.3563 11.3277L11.3395 11.3277L11.3228 11.3276L11.306 11.3276L11.2892 11.3276L11.2724 11.3276L11.2557 11.3275L11.2389 11.3275L11.2221 11.3275L11.2053 11.3275L11.1885 11.3275L11.1718 11.3274L11.155 11.3274L11.1382 11.3274L11.1214 11.3274L11.1046 11.3274L11.0879 11.3273L11.0711 11.3273L11.0543 11.3273L11.0375 11.3273L11.0207 11.3273L11.004 11.3272L10.9872 11.3272L10.9704 11.3272L10.9536 11.3272L10.9368 11.3272L10.9201 11.3271L10.9033 11.3271L10.8865 11.3271L10.8697 11.3271L10.853 11.3271L10.8362 11.327L10.8194 11.327L10.8026 11.327L10.7858 11.327L10.7691 11.327L10.7523 11.3269L10.7355 11.3269L10.7187 11.3269L10.7019 11.3269L10.6852 11.3269L10.6684 11.3268L10.6516 11.3268L10.6348 11.3268L10.618 11.3268L10.6013 11.3268L10.5845 11.3267L10.5677 11.3267L10.5509 11.3267L10.5341 11.3267L10.5174 11.3267L10.5006 11.3266L10.4838 11.3266L10.467 11.3266L10.4503 11.3266L10.4335 11.3266L10.4167 11.3265L10.3999 11.3265L10.3831 11.3265L10.3664 11.3265L10.3496 11.3265L10.3328 11.3264L10.316 11.3264L10.2992 11.3264L10.2825 11.3264L10.2657 11.3264L10.2489 11.3263L10.2321 11.3263L10.2153 11.3263L10.1986 11.3263L10.1818 11.3263L10.165 11.3262L10.1482 11.3262L10.1315 11.3262L10.1147 11.3262L10.0979 11.3262L10.0811 11.3261L10.0643 11.3261L10.0476 11.3261L10.0308 11.3261L10.014 11.3261L9.99722 11.326L9.98044 11.326L9.96366 11.326L9.94688 11.326L9.9301 11.326L9.91332 11.3259L9.89654 11.3259L9.87977 11.3259L9.86299 11.3259L9.84621 11.3259L9.82943 11.3258L9.81265 11.3258L9.79587 11.3258L9.77909 11.3258L9.76231 11.3258L9.74553 11.3257L9.72875 11.3257L9.71197 11.3257L9.69519 11.3257L9.67841 11.3257L9.66163 11.3256L9.64486 11.3256L9.62808 11.3256L9.6113 11.3256L9.59452 11.3256L9.57774 11.3255L9.56096 11.3255L9.54418 11.3255L9.5274 11.3255L9.51062 11.3255L9.49384 11.3254L9.47706 11.3254L9.46029 11.3254L9.44351 11.3254L9.42673 11.3254L9.40995 11.3253L9.39317 11.3253L9.37639 11.3253L9.35961 11.3253L9.34283 11.3253L9.32605 11.3252L9.30927 11.3252L9.29249 11.3252L9.27572 11.3252L9.25894 11.3252L9.24216 11.3251L9.22538 11.3251L9.2086 11.3251L9.19182 11.3251L9.17504 11.325L9.15826 11.325L9.14148 11.325L9.1247 11.325L9.10792 11.325L9.09115 11.3249L9.07437 11.3249L9.05759 11.3249L9.04081 11.3249L9.02403 11.3249L9.00725 11.3248L8.99047 11.3248L8.97369 11.3248L8.95691 11.3248L8.94013 11.3248L8.92335 11.3247L8.90658 11.3247L8.8898 11.3247L8.87302 11.3247L8.85624 11.3247L8.83946 11.3246L8.82268 11.3246L8.8059 11.3246L8.78912 11.3246L8.77234 11.3246L8.75556 11.3245L8.73878 11.3245L8.722 11.3245L8.70523 11.3245L8.68845 11.3245L8.67167 11.3244L8.65489 11.3244L8.63811 11.3244L8.62133 11.3244L8.60455 11.3244L8.58777 11.3243L8.57099 11.3243L8.55421 11.3243L8.53743 11.3243L8.52066 11.3243L8.50388 11.3242L8.4871 11.3242L8.47032 11.3242L8.45354 11.3242L8.43676 11.3242L8.41998 11.3241L8.4032 11.3241L8.38642 11.3241L8.36964 11.3241L8.35286 11.3241L8.33608 11.324L8.31931 11.324L8.30253 11.324L8.28575 11.324L8.26897 11.324L8.25219 11.3239L8.23541 11.3239L8.21863 11.3239L8.20185 11.3239L8.18507 11.3239L8.16829 11.3238L8.15151 11.3238L8.13474 11.3238L8.11796 11.3238L8.10118 11.3238L8.0844 11.3237L8.06762 11.3237L8.05084 11.3237L8.03406 11.3237L8.01728 11.3237L8.0005 11.3236L7.99885 12.657L8.01563 12.657L8.03241 12.657L8.04919 12.657L8.06597 12.6571L8.08274 12.6571L8.09952 12.6571L8.1163 12.6571L8.13308 12.6571L8.14986 12.6572L8.16664 12.6572L8.18342 12.6572L8.2002 12.6572L8.21698 12.6572L8.23376 12.6573L8.25054 12.6573L8.26731 12.6573L8.28409 12.6573L8.30087 12.6573L8.31765 12.6574L8.33443 12.6574L8.35121 12.6574L8.36799 12.6574L8.38477 12.6574L8.40155 12.6575L8.41833 12.6575L8.43511 12.6575L8.45189 12.6575L8.46866 12.6575L8.48544 12.6576L8.50222 12.6576L8.519 12.6576L8.53578 12.6576L8.55256 12.6576L8.56934 12.6577L8.58612 12.6577L8.6029 12.6577L8.61968 12.6577L8.63646 12.6577L8.65323 12.6578L8.67001 12.6578L8.68679 12.6578L8.70357 12.6578L8.72035 12.6578L8.73713 12.6579L8.75391 12.6579L8.77069 12.6579L8.78747 12.6579L8.80425 12.6579L8.82103 12.658L8.83781 12.658L8.85458 12.658L8.87136 12.658L8.88814 12.658L8.90492 12.6581L8.9217 12.6581L8.93848 12.6581L8.95526 12.6581L8.97204 12.6581L8.98882 12.6582L9.0056 12.6582L9.02238 12.6582L9.03915 12.6582L9.05593 12.6582L9.07271 12.6583L9.08949 12.6583L9.10627 12.6583L9.12305 12.6583L9.13983 12.6583L9.15661 12.6584L9.17339 12.6584L9.19017 12.6584L9.20695 12.6584L9.22373 12.6584L9.2405 12.6585L9.25728 12.6585L9.27406 12.6585L9.29084 12.6585L9.30762 12.6585L9.3244 12.6586L9.34118 12.6586L9.35796 12.6586L9.37474 12.6586L9.39152 12.6586L9.4083 12.6587L9.42507 12.6587L9.44185 12.6587L9.45863 12.6587L9.47541 12.6587L9.49219 12.6588L9.50897 12.6588L9.52575 12.6588L9.54253 12.6588L9.55931 12.6588L9.57609 12.6589L9.59287 12.6589L9.60964 12.6589L9.62642 12.6589L9.6432 12.6589L9.65998 12.659L9.67676 12.659L9.69354 12.659L9.71032 12.659L9.7271 12.659L9.74388 12.6591L9.76066 12.6591L9.77744 12.6591L9.79421 12.6591L9.81099 12.6591L9.82777 12.6592L9.84455 12.6592L9.86133 12.6592L9.87811 12.6592L9.89489 12.6592L9.91167 12.6593L9.92845 12.6593L9.94523 12.6593L9.96201 12.6593L9.97879 12.6594L9.99556 12.6594L10.0123 12.6594L10.0291 12.6594L10.0459 12.6594L10.0627 12.6595L10.0795 12.6595L10.0962 12.6595L10.113 12.6595L10.1298 12.6595L10.1466 12.6596L10.1634 12.6596L10.1801 12.6596L10.1969 12.6596L10.2137 12.6596L10.2305 12.6597L10.2473 12.6597L10.264 12.6597L10.2808 12.6597L10.2976 12.6597L10.3144 12.6598L10.3311 12.6598L10.3479 12.6598L10.3647 12.6598L10.3815 12.6598L10.3983 12.6599L10.415 12.6599L10.4318 12.6599L10.4486 12.6599L10.4654 12.6599L10.4822 12.66L10.4989 12.66L10.5157 12.66L10.5325 12.66L10.5493 12.66L10.5661 12.6601L10.5828 12.6601L10.5996 12.6601L10.6164 12.6601L10.6332 12.6601L10.65 12.6602L10.6667 12.6602L10.6835 12.6602L10.7003 12.6602L10.7171 12.6602L10.7338 12.6603L10.7506 12.6603L10.7674 12.6603L10.7842 12.6603L10.801 12.6603L10.8177 12.6604L10.8345 12.6604L10.8513 12.6604L10.8681 12.6604L10.8849 12.6604L10.9016 12.6605L10.9184 12.6605L10.9352 12.6605L10.952 12.6605L10.9688 12.6605L10.9855 12.6606L11.0023 12.6606L11.0191 12.6606L11.0359 12.6606L11.0526 12.6606L11.0694 12.6607L11.0862 12.6607L11.103 12.6607L11.1198 12.6607L11.1365 12.6607L11.1533 12.6608L11.1701 12.6608L11.1869 12.6608L11.2037 12.6608L11.2204 12.6608L11.2372 12.6609L11.254 12.6609L11.2708 12.6609L11.2876 12.6609L11.3043 12.6609L11.3211 12.661L11.3379 12.661L11.3547 12.661L11.3715 12.661L11.3882 12.661L11.405 12.6611L11.4218 12.6611L11.4386 12.6611L11.4553 12.6611L11.4721 12.6611L11.4889 12.6612L11.5057 12.6612L11.5225 12.6612L11.5392 12.6612L11.556 12.6612L11.5728 12.6613L11.5896 12.6613L11.6064 12.6613L11.6231 12.6613L11.6399 12.6613L11.6567 12.6614L11.6735 12.6614L11.6903 12.6614L11.707 12.6614L11.7238 12.6614L11.7406 12.6615L11.7574 12.6615L11.7742 12.6615L11.7909 12.6615L11.8077 12.6615L11.8245 12.6616L11.8413 12.6616L11.858 12.6616L11.8748 12.6616L11.8916 12.6616L11.9084 12.6617L11.9252 12.6617L11.9419 12.6617L11.9587 12.6617L11.9755 12.6617L11.9923 12.6618L12.0091 12.6618L12.0258 12.6618L12.0426 12.6618L12.0594 12.6618L12.0762 12.6619L12.093 12.6619L12.1097 12.6619L12.1265 12.6619L12.1433 12.662L12.1601 12.662L12.1768 12.662L12.1936 12.662L12.2104 12.662L12.2272 12.6621L12.244 12.6621L12.2607 12.6621L12.2775 12.6621L12.2943 12.6621L12.3111 12.6622L12.3279 12.6622L12.3446 12.6622L12.3614 12.6622L12.3782 12.6622L12.395 12.6623L12.4118 12.6623L12.4285 12.6623L12.4453 12.6623L12.4621 12.6623L12.4789 12.6624L12.4957 12.6624L12.5124 12.6624L12.5292 12.6624L12.546 12.6624L12.5628 12.6625L12.5795 12.6625L12.5963 12.6625L12.6131 12.6625L12.6299 12.6625L12.6467 12.6626L12.6634 12.6626L12.6802 12.6626L12.697 12.6626L12.7138 12.6626L12.7306 12.6627L12.7473 12.6627L12.7641 12.6627L12.7809 12.6627L12.7977 12.6627L12.8145 12.6628L12.8312 12.6628L12.848 12.6628L12.8648 12.6628L12.8816 12.6628L12.8984 12.6629L12.9151 12.6629L12.9319 12.6629L12.9487 12.6629L12.9655 12.6629L12.9822 12.663L12.999 12.663L13.0158 12.663L13.0326 12.663L13.0494 12.663L13.0661 12.6631L13.0829 12.6631L13.0997 12.6631L13.1165 12.6631L13.1333 12.6631L13.15 12.6632L13.1668 12.6632L13.1836 12.6632L13.2004 12.6632L13.2172 12.6632L13.2339 12.6633L13.2507 12.6633L13.2675 12.6633L13.2843 12.6633L13.3011 12.6633L13.3178 12.6634L13.3346 12.6634L13.3514 12.6634L13.3682 12.6634L13.3849 12.6634L13.4017 12.6635L13.4185 12.6635L13.4353 12.6635L13.4521 12.6635L13.4688 12.6635L13.4856 12.6636L13.5024 12.6636L13.5192 12.6636L13.536 12.6636L13.5527 12.6636L13.5695 12.6637L13.5863 12.6637L13.6031 12.6637L13.6199 12.6637L13.6366 12.6637L13.6534 12.6638L13.6702 12.6638L13.687 12.6638L13.7038 12.6638L13.7205 12.6638L13.7373 12.6639L13.7541 12.6639L13.7709 12.6639L13.7876 12.6639L13.8044 12.6639L13.8212 12.664L13.838 12.664L13.8548 12.664L13.8715 12.664L13.8883 12.664L13.9051 12.6641L13.9219 12.6641L13.9387 12.6641L13.9554 12.6641L13.9722 12.6641L13.989 12.6642L14.0058 12.6642L14.0226 12.6642L14.0393 12.6642L14.0561 12.6642L14.0729 12.6643L14.0897 12.6643L14.1064 12.6643L14.1232 12.6643L14.14 12.6644L14.1568 12.6644L14.1736 12.6644L14.1903 12.6644L14.2071 12.6644L14.2239 12.6645L14.2407 12.6645L14.2575 12.6645L14.2742 12.6645L14.291 12.6645L14.3078 12.6646L14.3246 12.6646L14.3414 12.6646L14.3581 12.6646L14.3749 12.6646L14.3917 12.6647L14.4085 12.6647L14.4253 12.6647L14.442 12.6647L14.4588 12.6647L14.4756 12.6648L14.4924 12.6648L14.5091 12.6648L14.5259 12.6648L14.5427 12.6648L14.5595 12.6649L14.5763 12.6649L14.593 12.6649L14.6098 12.6649L14.6266 12.6649L14.6434 12.665L14.6602 12.665L14.6769 12.665L14.6937 12.665L14.7105 12.665L14.7273 12.6651L14.7441 12.6651L14.7608 12.6651L14.7776 12.6651L14.7944 12.6651L14.8112 12.6652L14.828 12.6652L14.8447 12.6652L14.8615 12.6652L14.8783 12.6652L14.8951 12.6653L14.9118 12.6653L14.9286 12.6653L14.9454 12.6653L14.9622 12.6653L14.979 12.6654L14.9957 12.6654L15.0125 12.6654L15.0293 12.6654L15.0461 12.6654L15.0629 12.6655L15.0796 12.6655L15.0964 12.6655L15.1132 12.6655L15.13 12.6655L15.1468 12.6656L15.1635 12.6656L15.1803 12.6656L15.1971 12.6656L15.2139 12.6656L15.2306 12.6657L15.2474 12.6657L15.2642 12.6657L15.281 12.6657L15.2978 12.6657L15.3145 12.6658L15.3313 12.6658L15.3481 12.6658L15.3649 12.6658L15.3817 12.6658L15.3984 12.6659L15.4152 12.6659L15.432 12.6659L15.4488 12.6659L15.4656 12.6659L15.4823 12.666L15.4991 12.666L15.5159 12.666L15.5327 12.666L15.5495 12.666L15.5662 12.6661L15.583 12.6661L15.5998 12.6661L15.6166 12.6661L15.6333 12.6661L15.6501 12.6662L15.6669 12.6662L15.6837 12.6662L15.7005 12.6662L15.7172 12.6662L15.734 12.6663L15.7508 12.6663L15.7676 12.6663L15.7844 12.6663L15.8011 12.6663L15.8179 12.6664L15.8347 12.6664L15.8515 12.6664L15.8683 12.6664L15.885 12.6664L15.9018 12.6665L15.9186 12.6665L15.9354 12.6665L15.9522 12.6665L15.9689 12.6665L15.9857 12.6666L16.0025 12.6666L16.0193 12.6666L16.036 12.6666L16.0528 12.6666L16.0696 12.6667L16.0864 12.6667L16.1032 12.6667L16.1199 12.6667L16.1367 12.6667L16.1535 12.6668L16.1703 12.6668L16.1871 12.6668L16.2038 12.6668L16.2206 12.6669L16.2374 12.6669L16.2542 12.6669L16.271 12.6669L16.2836 12.6669L12.458 16.7581C12.2065 17.0271 12.2065 17.4631 12.458 17.732C12.7095 18.001 13.1172 18.001 13.3687 17.732L18.2822 12.4772C18.5337 12.2083 18.5337 11.7723 18.2822 11.5033L13.3687 6.24853Z" fill="white"/>
</svg>
