<svg width="199" height="30" viewBox="0 0 199 30" fill="none" xmlns="http://www.w3.org/2000/svg">
<circle cx="15" cy="15" r="13" fill="white"/>
<path fill-rule="evenodd" clip-rule="evenodd" d="M15 30C23.2843 30 30 23.2843 30 15C30 6.71573 23.2843 0 15 0C6.71573 0 0 6.71573 0 15C0 23.2843 6.71573 30 15 30ZM12.2579 6.98923C12.2579 6.38376 12.7497 5.89292 13.3565 5.89292C17.4687 5.89292 20.8024 9.21967 20.8024 13.3234C20.8024 13.9289 20.3106 14.4197 19.7038 14.4197C19.0971 14.4197 18.6052 13.9289 18.6052 13.3234C18.6052 10.4306 16.2553 8.08554 13.3565 8.08554C12.7497 8.08554 12.2579 7.59471 12.2579 6.98923ZM24.1066 13.3235C24.1066 12.7181 23.6148 12.2272 23.008 12.2272C22.4013 12.2272 21.9094 12.7181 21.9094 13.3235C21.9094 16.2163 19.5595 18.5614 16.6607 18.5614C16.0539 18.5614 15.5621 19.0523 15.5621 19.6577C15.5621 20.2632 16.0539 20.754 16.6607 20.754C20.7729 20.754 24.1066 17.4273 24.1066 13.3235ZM17.7601 23.011C17.7601 23.6164 17.2682 24.1073 16.6615 24.1073C12.5492 24.1073 9.21553 20.7805 9.21553 16.6768C9.21553 16.0713 9.70739 15.5805 10.3141 15.5805C10.9209 15.5805 11.4127 16.0713 11.4127 16.6768C11.4127 19.5696 13.7627 21.9146 16.6615 21.9146C17.2682 21.9146 17.7601 22.4055 17.7601 23.011ZM5.89281 16.6769C5.89281 17.2824 6.38467 17.7732 6.9914 17.7732C7.59813 17.7732 8.08999 17.2824 8.08999 16.6769C8.08999 13.7841 10.4399 11.439 13.3388 11.439C13.9455 11.439 14.4373 10.9482 14.4373 10.3427C14.4373 9.73722 13.9455 9.24639 13.3388 9.24639C9.22647 9.24639 5.89281 12.5731 5.89281 16.6769Z" fill="#0DBD8B"/>
<path d="M53.5406 17.2581H42.8052C42.9321 18.3815 43.3398 19.2783 44.0283 19.9487C44.7168 20.601 45.6227 20.9272 46.7461 20.9272C47.4889 20.9272 48.1593 20.746 48.7573 20.3836C49.3552 20.0212 49.781 19.532 50.0346 18.916H53.296C52.8611 20.3474 52.0458 21.507 50.85 22.3948C49.6722 23.2645 48.2771 23.6993 46.6645 23.6993C44.5628 23.6993 42.8596 23.0017 41.5551 21.6066C40.2686 20.2115 39.6254 18.4449 39.6254 16.3069C39.6254 14.2232 40.2777 12.4748 41.5822 11.0615C42.8868 9.64824 44.5718 8.94161 46.6374 8.94161C48.7029 8.94161 50.3698 9.63918 51.6381 11.0343C52.9246 12.4113 53.5678 14.1507 53.5678 16.2525L53.5406 17.2581ZM46.6374 11.5779C45.6227 11.5779 44.7802 11.8768 44.1098 12.4748C43.4394 13.0727 43.0227 13.8699 42.8596 14.8664H50.3608C50.2158 13.8699 49.8172 13.0727 49.1649 12.4748C48.5127 11.8768 47.6701 11.5779 46.6374 11.5779Z" fill="white"/>
<path d="M55.7934 19.1606V2.9896H59.0276V19.2149C59.0276 19.9397 59.4262 20.3021 60.2234 20.3021L60.7942 20.2749V23.346C60.4862 23.4004 60.16 23.4275 59.8158 23.4275C58.4206 23.4275 57.3969 23.0742 56.7446 22.3676C56.1105 21.661 55.7934 20.592 55.7934 19.1606Z" fill="white"/>
<path d="M75.8564 17.2581H65.121C65.2478 18.3815 65.6555 19.2783 66.344 19.9487C67.0325 20.601 67.9385 20.9272 69.0618 20.9272C69.8047 20.9272 70.4751 20.746 71.073 20.3836C71.6709 20.0212 72.0967 19.532 72.3504 18.916H75.6118C75.1769 20.3474 74.3616 21.507 73.1657 22.3948C71.988 23.2645 70.5929 23.6993 68.9803 23.6993C66.8785 23.6993 65.1754 23.0017 63.8708 21.6066C62.5844 20.2115 61.9412 18.4449 61.9412 16.3069C61.9412 14.2232 62.5935 12.4748 63.898 11.0615C65.2026 9.64824 66.8876 8.94161 68.9531 8.94161C71.0187 8.94161 72.6856 9.63918 73.9539 11.0343C75.2403 12.4113 75.8835 14.1507 75.8835 16.2525L75.8564 17.2581ZM68.9531 11.5779C67.9385 11.5779 67.096 11.8768 66.4256 12.4748C65.7552 13.0727 65.3384 13.8699 65.1754 14.8664H72.6765C72.5316 13.8699 72.133 13.0727 71.4807 12.4748C70.8284 11.8768 69.9859 11.5779 68.9531 11.5779Z" fill="white"/>
<path d="M90.448 15.2741V23.3732H87.2138V14.9208C87.2138 12.7828 86.326 11.7138 84.5504 11.7138C83.5901 11.7138 82.82 12.0218 82.2402 12.6378C81.6786 13.2539 81.3977 14.0964 81.3977 15.1654V23.3732H78.1635V9.26775H81.1531V11.143C81.4974 10.5089 82.0228 9.98344 82.7295 9.56671C83.4361 9.14998 84.3148 8.94161 85.3657 8.94161C87.3226 8.94161 88.7358 9.68448 89.6055 11.1702C90.8013 9.68448 92.3958 8.94161 94.3889 8.94161C96.0377 8.94161 97.306 9.45799 98.1938 10.4908C99.0816 11.5054 99.5255 12.8462 99.5255 14.5131V23.3732H96.2913V14.9208C96.2913 12.7828 95.4035 11.7138 93.6279 11.7138C92.6495 11.7138 91.8704 12.0309 91.2906 12.665C90.7289 13.281 90.448 14.1507 90.448 15.2741Z" fill="white"/>
<path d="M115.61 17.2581H104.874C105.001 18.3815 105.409 19.2783 106.097 19.9487C106.786 20.601 107.692 20.9272 108.815 20.9272C109.558 20.9272 110.228 20.746 110.826 20.3836C111.424 20.0212 111.85 19.532 112.104 18.916H115.365C114.93 20.3474 114.115 21.507 112.919 22.3948C111.741 23.2645 110.346 23.6993 108.734 23.6993C106.632 23.6993 104.929 23.0017 103.624 21.6066C102.338 20.2115 101.694 18.4449 101.694 16.3069C101.694 14.2232 102.347 12.4748 103.651 11.0615C104.956 9.64824 106.641 8.94161 108.706 8.94161C110.772 8.94161 112.439 9.63918 113.707 11.0343C114.994 12.4113 115.637 14.1507 115.637 16.2525L115.61 17.2581ZM108.706 11.5779C107.692 11.5779 106.849 11.8768 106.179 12.4748C105.508 13.0727 105.092 13.8699 104.929 14.8664H112.43C112.285 13.8699 111.886 13.0727 111.234 12.4748C110.582 11.8768 109.739 11.5779 108.706 11.5779Z" fill="white"/>
<path d="M120.906 9.26775V11.143C121.233 10.527 121.767 10.0106 122.51 9.59388C123.271 9.15903 124.186 8.94161 125.255 8.94161C126.922 8.94161 128.208 9.44893 129.114 10.4636C130.038 11.4782 130.5 12.8281 130.5 14.5131V23.3732H127.266V14.9208C127.266 13.9243 127.031 13.1452 126.559 12.5835C126.106 12.0037 125.409 11.7138 124.467 11.7138C123.434 11.7138 122.619 12.0218 122.021 12.6378C121.441 13.2539 121.151 14.1054 121.151 15.1926V23.3732H117.917V9.26775H120.906Z" fill="white"/>
<path d="M139.946 20.4923V23.2916C139.547 23.4004 138.985 23.4547 138.261 23.4547C135.507 23.4547 134.13 22.0686 134.13 19.2965V11.8497H131.983V9.26775H134.13V5.5987H137.364V9.26775H140V11.8497H137.364V18.9703C137.364 20.0756 137.889 20.6282 138.94 20.6282L139.946 20.4923Z" fill="white"/>
</svg>
