<svg width="48" height="48" viewBox="0 0 48 48" fill="none" xmlns="http://www.w3.org/2000/svg">
<g id="Logo Mark">
<rect width="47.86" height="48" rx="23.93" fill="#0DBD8B"/>
<g id="Union">
<path d="M21.3075 9.42871C20.3396 9.42871 19.5549 10.214 19.5549 11.1828C19.5549 12.1516 20.3396 12.9369 21.3075 12.9369C25.9321 12.9369 29.6811 16.689 29.6811 21.3175C29.6811 22.2863 30.4657 23.0716 31.4337 23.0716C32.4016 23.0716 33.1863 22.2863 33.1863 21.3175C33.1863 14.7515 27.868 9.42871 21.3075 9.42871Z" fill="white"/>
<path d="M38.4591 21.3174C38.4591 20.3486 37.6745 19.5633 36.7065 19.5633C35.7386 19.5633 34.9539 20.3486 34.9539 21.3174C34.9539 25.9459 31.2049 29.698 26.5804 29.698C25.6124 29.698 24.8277 30.4833 24.8277 31.4521C24.8277 32.4209 25.6124 33.2062 26.5804 33.2062C33.1408 33.2062 38.4591 27.8834 38.4591 21.3174Z" fill="white"/>
<path d="M28.3329 36.8173C28.3329 37.786 27.5482 38.5714 26.5803 38.5714C20.0198 38.5714 14.7015 33.2486 14.7015 26.6826C14.7015 25.7138 15.4862 24.9285 16.4541 24.9285C17.4221 24.9285 18.2067 25.7138 18.2067 26.6826C18.2067 31.3111 21.9557 35.0632 26.5803 35.0632C27.5482 35.0632 28.3329 35.8485 28.3329 36.8173Z" fill="white"/>
<path d="M9.40112 26.6827C9.40112 27.6514 10.1858 28.4368 11.1537 28.4368C12.1217 28.4368 12.9064 27.6514 12.9064 26.6827C12.9064 22.0542 16.6553 18.3021 21.2799 18.3021C22.2478 18.3021 23.0325 17.5167 23.0325 16.548C23.0325 15.5792 22.2478 14.7939 21.2799 14.7939C14.7194 14.7939 9.40112 20.1167 9.40112 26.6827Z" fill="white"/>
</g>
</g>
</svg>
