<svg width="20" height="20" viewBox="0 0 20 20" fill="none" xmlns="http://www.w3.org/2000/svg">
<path d="M6.37785 4.70549C6.37785 2.79707 7.99961 1.25 10.0001 1.25C12.0007 1.25 13.6224 2.79707 13.6224 4.70548V9.87324C13.6224 11.7817 12.0007 13.3287 10.0001 13.3287C7.99961 13.3287 6.37785 11.7817 6.37785 9.87324V4.70549Z" fill="white"/>
<path d="M3.66099 8.77015C4.30219 8.77015 4.82198 9.266 4.82198 9.87768C4.82198 12.5957 7.1314 14.8024 9.98617 14.8095C9.99084 14.8094 9.99552 14.8094 10.0002 14.8094C10.0049 14.8094 10.0095 14.8094 10.0141 14.8095C12.8688 14.8022 15.178 12.5956 15.178 9.87768C15.178 9.266 15.6978 8.77015 16.339 8.77015C16.9802 8.77015 17.5 9.266 17.5 9.87768C17.5 13.4496 14.7509 16.4077 11.1612 16.9394V17.6425C11.1612 18.2541 10.6414 18.75 10.0002 18.75C9.359 18.75 8.83921 18.2541 8.83921 17.6425V16.9395C5.24925 16.4079 2.5 13.4497 2.5 9.87768C2.5 9.266 3.01979 8.77015 3.66099 8.77015Z" fill="white"/>
</svg>
