<svg width="20" height="20" viewBox="0 0 20 20" fill="none" xmlns="http://www.w3.org/2000/svg">
<path d="M2.74372 1.50628C2.40201 1.16457 1.84799 1.16457 1.50628 1.50628C1.16457 1.84799 1.16457 2.40201 1.50628 2.74372L6.5 7.73744V10C6.5 11.933 8.067 13.5 10 13.5C10.6491 13.5 11.2569 13.3233 11.778 13.0154L13.042 14.2794C12.1838 14.8906 11.1339 15.25 10 15.25C7.10051 15.25 4.75 12.8995 4.75 10C4.75 9.51675 4.35825 9.125 3.875 9.125C3.39175 9.125 3 9.51675 3 10C3 13.5697 5.67198 16.5153 9.125 16.9458V17.875C9.125 18.3582 9.51675 18.75 10 18.75C10.4832 18.75 10.875 18.3582 10.875 17.875V16.9458C12.1531 16.7865 13.3242 16.2825 14.2924 15.5299L17.2563 18.4937C17.598 18.8354 18.152 18.8354 18.4937 18.4937C18.8354 18.152 18.8354 17.598 18.4937 17.2563L2.74372 1.50628Z" fill="#394049"/>
<path d="M15.0678 11.3763L16.439 12.7504C16.8001 11.9061 17 10.9764 17 10C17 9.51675 16.6082 9.125 16.125 9.125C15.6418 9.125 15.25 9.51675 15.25 10C15.25 10.4762 15.1866 10.9376 15.0678 11.3763Z" fill="#394049"/>
<path d="M6.87692 3.16834L13.5 9.80523V4.75C13.5 2.817 11.933 1.25 10 1.25C8.63618 1.25 7.45455 2.03005 6.87692 3.16834Z" fill="#394049"/>
</svg>
