<svg width="30" height="30" viewBox="0 0 30 30" fill="none" xmlns="http://www.w3.org/2000/svg">
<path d="M8.33398 15C8.33398 16.3807 7.2147 17.5 5.83398 17.5C4.45327 17.5 3.33398 16.3807 3.33398 15C3.33398 13.6193 4.45327 12.5 5.83398 12.5C7.2147 12.5 8.33398 13.6193 8.33398 15Z" fill="white"/>
<path d="M17.5002 15C17.5002 16.3807 16.381 17.5 15.0002 17.5C13.6195 17.5 12.5002 16.3807 12.5002 15C12.5002 13.6193 13.6195 12.5 15.0002 12.5C16.381 12.5 17.5002 13.6193 17.5002 15Z" fill="white"/>
<path d="M24.1665 17.5C25.5472 17.5 26.6665 16.3807 26.6665 15C26.6665 13.6193 25.5472 12.5 24.1665 12.5C22.7858 12.5 21.6665 13.6193 21.6665 15C21.6665 16.3807 22.7858 17.5 24.1665 17.5Z" fill="white"/>
</svg>
