<?xml version="1.0" encoding="UTF-8"?>
<svg width="14px" height="20px" viewBox="0 0 14 20" version="1.1" xmlns="http://www.w3.org/2000/svg" xmlns:xlink="http://www.w3.org/1999/xlink">
    <title>raise-hand</title>
    <g id="Page-1" stroke="none" stroke-width="1" fill="none" fill-rule="evenodd">
        <g id="raise-hand" fill="#FFFFFF">
            <path d="M11.5863636,2.42414773 C11.4352273,2.57556818 11.3409091,2.78522727 11.3409091,3.01534091 L11.3409091,7.65909091 C11.3409091,7.79176136 11.2329545,7.89971591 11.1002841,7.89971591 C10.9676136,7.89971591 10.8596591,7.79176136 10.8596591,7.65909091 L10.8596591,1.93892045 C10.8596591,1.69517045 10.7653409,1.49034091 10.6136364,1.34630682 C10.4519886,1.19289773 10.221875,1.10369318 9.96619318,1.10369318 C9.74232955,1.10369318 9.53778409,1.19289773 9.38181818,1.34318182 C9.225,1.50028409 9.13068182,1.709375 9.13068182,1.93892045 L9.13068182,7.40028409 C9.13068182,7.53295455 9.02272727,7.64090909 8.89005682,7.64090909 C8.75738636,7.64090909 8.64943182,7.53295455 8.64943182,7.40028409 L8.64943182,0.863068182 C8.64943182,0.619318182 8.55511364,0.414204545 8.40340909,0.270170455 C8.24176136,0.116761364 8.01164773,0.0275568182 7.75596591,0.0275568182 C7.52670455,0.0275568182 7.31761364,0.121875 7.16619318,0.273295455 C7.01505682,0.424431818 6.92073864,0.633522727 6.92073864,0.863068182 L6.92073864,7.65909091 C6.92073864,7.79176136 6.81278409,7.89971591 6.68011364,7.89971591 C6.54744318,7.89971591 6.43948864,7.79176136 6.43948864,7.65909091 L6.43948864,1.93892045 C6.43948864,1.69431818 6.34573864,1.48948864 6.19403409,1.34573864 C6.03238636,1.19261364 5.80227273,1.10369318 5.54602273,1.10369318 C5.32215909,1.10369318 5.11789773,1.19289773 4.96193182,1.34318182 C4.80511364,1.50028409 4.71079545,1.709375 4.71079545,1.93892045 L4.71079545,8.73551136 C4.71505682,9.01221591 4.65568182,9.25198864 4.54318182,9.45511364 C4.41761364,9.67102273 4.24289773,9.82017045 4.034375,9.90227273 C3.83125,9.98210227 3.59744318,9.996875 3.35539773,9.93664773 C3.08806818,9.87017045 2.80852273,9.71278409 2.54801136,9.45227273 L1.48892045,8.39318182 C1.32840909,8.23210227 1.11590909,8.15198864 0.903693182,8.15198864 C0.691477273,8.15198864 0.478977273,8.23267045 0.31875,8.39289773 L0.238920455,8.47329545 C0.09375,8.63267045 0.0184659091,8.83863636 0.0173160196,9.04147727 C0.0161931818,9.24005682 0.0866477273,9.4375 0.233238636,9.58409091 C1.38806818,10.7235795 2.74090909,11.8667614 3.95255682,12.96875 C4.76960227,13.7178977 4.79090909,14.1713068 4.75823864,15.6471591 L11.9457386,15.6471591 L12.0065341,15.6482955 C12.1059659,13.5639205 12.3755682,12.6994318 12.6201705,11.9136364 C12.85625,11.1556818 13.0693182,10.4724432 13.0693182,8.73551136 L13.0693182,3.01534091 C13.0693182,2.77130682 12.975,2.56647727 12.8232955,2.42244318 C12.6616477,2.26875 12.43125,2.17954545 12.1758523,2.17954545 C11.9460227,2.17954545 11.7366477,2.27357955 11.5863636,2.42414773 L11.5863636,2.42414773 Z M11.9457386,16.1284091 L4.76960227,16.1284091 C4.46022727,16.1284091 4.17897727,16.2548295 3.97528409,16.4579545 C3.77215909,16.6616477 3.64573864,16.9431818 3.64573864,17.2522727 L3.64573864,19.9911932 L13.0696023,19.9911932 L13.0696023,17.2522727 C13.0696023,16.9431818 12.9431818,16.6616477 12.7400568,16.4579545 C12.5363636,16.2548295 12.2551136,16.1284091 11.9457386,16.1284091 L11.9457386,16.1284091 Z" id="Shape"></path>
        </g>
    </g>
</svg>