<svg width="24" height="24" viewBox="0 0 24 24" fill="none" xmlns="http://www.w3.org/2000/svg">
<path fill-rule="evenodd" clip-rule="evenodd" d="M20.0988 9.01625C20.3188 9.59375 20.8825 9.97875 21.5013 9.97875C22.3263 9.97875 23 10.6525 23 11.4775V12.5225C23 13.3475 22.3263 14.0213 21.5013 14.0213C20.8825 14.0213 20.3188 14.4062 20.0988 14.9838C20.0806 15.0292 20.0624 15.0753 20.0441 15.1218C19.9792 15.2863 19.9125 15.4555 19.8375 15.6163C19.5763 16.18 19.7 16.84 20.14 17.28C20.7313 17.8575 20.7313 18.8062 20.14 19.3975L19.3975 20.14C18.82 20.7313 17.8713 20.7313 17.28 20.14C16.8538 19.7 16.18 19.5763 15.6163 19.8375C15.41 19.9338 15.2037 20.0163 14.9838 20.0988C14.4062 20.3188 14.0213 20.8825 14.0213 21.5013C14.0213 22.3263 13.3475 23 12.5225 23H11.4775C10.6525 23 9.97875 22.3263 9.97875 21.5013C9.97875 20.8825 9.59375 20.3188 9.01625 20.0988C8.97079 20.0806 8.92466 20.0624 8.87815 20.044C8.71368 19.9792 8.54454 19.9125 8.38375 19.8375C7.82 19.5763 7.16 19.7 6.72 20.14C6.1425 20.7313 5.19375 20.7313 4.6025 20.14L3.86 19.3975C3.26875 18.82 3.26875 17.8713 3.86 17.28C4.3 16.8538 4.42375 16.18 4.1625 15.6163C4.06625 15.41 3.98375 15.2037 3.90125 14.9838C3.68125 14.4062 3.1175 14.0213 2.49875 14.0213C1.67375 14.0213 1 13.3475 1 12.5225V11.4775C1 10.6525 1.67375 9.97875 2.49875 9.97875C3.1175 9.97875 3.68125 9.59375 3.90125 9.01625C3.94464 8.87742 3.99897 8.74406 4.0539 8.60926C4.086 8.53046 4.11831 8.45117 4.14875 8.37C4.41 7.80625 4.28625 7.14625 3.84625 6.70625C3.255 6.12875 3.255 5.18 3.84625 4.58875L4.6025 3.86C5.18 3.26875 6.12875 3.26875 6.72 3.86C7.14625 4.3 7.82 4.42375 8.38375 4.1625C8.59 4.06625 8.79625 3.97 9.01625 3.90125C9.59375 3.68125 9.97875 3.1175 9.97875 2.49875C9.97875 1.67375 10.6525 1 11.4775 1H12.5225C13.3475 1 14.0213 1.67375 14.0213 2.49875C14.0213 3.13125 14.4062 3.68125 14.9838 3.90125C15.0292 3.91943 15.0753 3.93762 15.1218 3.95595C15.2863 4.02079 15.4555 4.08746 15.6163 4.1625C16.18 4.42375 16.84 4.3 17.28 3.86C17.8575 3.26875 18.8062 3.26875 19.3975 3.86L20.14 4.6025C20.7313 5.18 20.7313 6.12875 20.14 6.72C19.7 7.14625 19.5763 7.82 19.8375 8.38375C19.9338 8.59 20.0163 8.79625 20.0988 9.01625ZM12 17.5C8.96125 17.5 6.5 15.0387 6.5 12C6.5 8.96125 8.96125 6.5 12 6.5C15.0387 6.5 17.5 8.96125 17.5 12C17.5 15.0387 15.0387 17.5 12 17.5Z" fill="#ffffff"/>
</svg>
