<svg width="28" height="26" viewBox="0 0 28 26" fill="none" xmlns="http://www.w3.org/2000/svg">
  <path id="Vector" d="M14 7.50675L15.2933 10.5601L15.92 12.0401L17.52 12.1734L20.8133 12.4534L18.3066 14.6267L17.0933 15.6801L17.4533 17.2534L18.2 20.4667L15.3733 18.7601L14 17.9067L12.6266 18.7334L9.79996 20.4401L10.5466 17.2267L10.9066 15.6534L9.69329 14.6001L7.18663 12.4267L10.48 12.1467L12.08 12.0134L12.7066 10.5334L14 7.50675M14 0.666748L10.2533 9.50675L0.666626 10.3201L7.94663 16.6267L5.75996 26.0001L14 21.0267L22.24 26.0001L20.0533 16.6267L27.3333 10.3201L17.7466 9.50675L14 0.666748Z" fill="white"/>
  </svg>
  