<svg width="22" height="22" viewBox="0 0 22 22" fill="none" xmlns="http://www.w3.org/2000/svg">
<mask id="path-1-inside-1_898_2641" fill="white">
<path fill-rule="evenodd" clip-rule="evenodd" d="M17.1502 20.1214C15.3946 21.3074 13.2782 22 11 22C8.52367 22 6.23845 21.1817 4.4 19.8008C1.72821 17.794 0 14.5988 0 11C0 4.92487 4.92487 0 11 0C17.0751 0 22 4.92487 22 11C22 14.797 20.0762 18.1446 17.1502 20.1214ZM11 11.55C12.8225 11.55 14.3 9.94942 14.3 7.975C14.3 6.00058 12.8225 4.4 11 4.4C9.17746 4.4 7.7 6.00058 7.7 7.975C7.7 9.94942 9.17746 11.55 11 11.55ZM11 19.8C13.3782 19.8 15.536 18.8566 17.1197 17.3237C16.1403 14.9056 13.7693 13.2 11 13.2C8.23066 13.2 5.85969 14.9056 4.88028 17.3237C6.46399 18.8566 8.62183 19.8 11 19.8Z"/>
</mask>
<path fill-rule="evenodd" clip-rule="evenodd" d="M17.1502 20.1214C15.3946 21.3074 13.2782 22 11 22C8.52367 22 6.23845 21.1817 4.4 19.8008C1.72821 17.794 0 14.5988 0 11C0 4.92487 4.92487 0 11 0C17.0751 0 22 4.92487 22 11C22 14.797 20.0762 18.1446 17.1502 20.1214ZM11 11.55C12.8225 11.55 14.3 9.94942 14.3 7.975C14.3 6.00058 12.8225 4.4 11 4.4C9.17746 4.4 7.7 6.00058 7.7 7.975C7.7 9.94942 9.17746 11.55 11 11.55ZM11 19.8C13.3782 19.8 15.536 18.8566 17.1197 17.3237C16.1403 14.9056 13.7693 13.2 11 13.2C8.23066 13.2 5.85969 14.9056 4.88028 17.3237C6.46399 18.8566 8.62183 19.8 11 19.8Z" fill="white"/>
<path d="M17.1502 20.1214L17.9339 21.2814L17.1502 20.1214ZM4.4 19.8008L3.55919 20.9202H3.55919L4.4 19.8008ZM17.1197 17.3237L18.0934 18.3296L18.7717 17.6731L18.4173 16.7981L17.1197 17.3237ZM4.88028 17.3237L3.58268 16.7981L3.22829 17.6731L3.90659 18.3296L4.88028 17.3237ZM11 23.4C13.5662 23.4 15.9541 22.619 17.9339 21.2814L16.3665 18.9613C14.835 19.9959 12.9902 20.6 11 20.6V23.4ZM3.55919 20.9202C5.63176 22.477 8.21011 23.4 11 23.4V20.6C8.83723 20.6 6.84514 19.8865 5.24081 18.6814L3.55919 20.9202ZM-1.4 11C-1.4 15.0577 0.55052 18.6603 3.55919 20.9202L5.24081 18.6814C2.90591 16.9276 1.4 14.1399 1.4 11H-1.4ZM11 -1.4C4.15167 -1.4 -1.4 4.15167 -1.4 11H1.4C1.4 5.69807 5.69807 1.4 11 1.4V-1.4ZM23.4 11C23.4 4.15167 17.8483 -1.4 11 -1.4V1.4C16.3019 1.4 20.6 5.69807 20.6 11H23.4ZM17.9339 21.2814C21.2288 19.0554 23.4 15.2815 23.4 11H20.6C20.6 14.3124 18.9236 17.2337 16.3665 18.9613L17.9339 21.2814ZM12.9 7.975C12.9 9.28384 11.9459 10.15 11 10.15V12.95C13.6991 12.95 15.7 10.615 15.7 7.975H12.9ZM11 5.8C11.9459 5.8 12.9 6.66616 12.9 7.975H15.7C15.7 5.335 13.6991 3 11 3V5.8ZM9.1 7.975C9.1 6.66616 10.0541 5.8 11 5.8V3C8.30086 3 6.3 5.335 6.3 7.975H9.1ZM11 10.15C10.0541 10.15 9.1 9.28384 9.1 7.975H6.3C6.3 10.615 8.30086 12.95 11 12.95V10.15ZM16.146 16.3178C14.8129 17.6081 13.0004 18.4 11 18.4V21.2C13.756 21.2 16.2591 20.1051 18.0934 18.3296L16.146 16.3178ZM11 14.6C13.1797 14.6 15.0494 15.9415 15.8221 17.8493L18.4173 16.7981C17.2312 13.8697 14.359 11.8 11 11.8V14.6ZM6.17788 17.8493C6.95058 15.9415 8.8203 14.6 11 14.6V11.8C7.64102 11.8 4.7688 13.8697 3.58268 16.7981L6.17788 17.8493ZM11 18.4C8.99963 18.4 7.18709 17.6081 5.85397 16.3178L3.90659 18.3296C5.74088 20.1051 8.24402 21.2 11 21.2V18.4Z" fill="white" mask="url(#path-1-inside-1_898_2641)"/>
</svg>
