<svg width="60" height="60" viewBox="0 0 60 60" fill="none" xmlns="http://www.w3.org/2000/svg">
<path fill-rule="evenodd" clip-rule="evenodd" d="M30 60C46.5686 60 60 46.5686 60 30C60 13.4315 46.5686 0 30 0C13.4315 0 0 13.4315 0 30C0 46.5686 13.4315 60 30 60Z" fill="#0DBD8B"/>
<path fill-rule="evenodd" clip-rule="evenodd" d="M24.5148 13.9784C24.5148 12.7674 25.4985 11.7858 26.712 11.7858C34.9366 11.7858 41.6039 18.4393 41.6039 26.6468C41.6039 27.8577 40.6202 28.8394 39.4067 28.8394C38.1932 28.8394 37.2095 27.8577 37.2095 26.6468C37.2095 20.8612 32.5096 16.171 26.712 16.171C25.4985 16.171 24.5148 15.1893 24.5148 13.9784Z" fill="white"/>
<path fill-rule="evenodd" clip-rule="evenodd" d="M46.017 24.4541C47.2304 24.4541 48.2142 25.4358 48.2142 26.6467C48.2142 34.8542 41.5468 41.5077 33.3223 41.5077C32.1088 41.5077 31.1251 40.5261 31.1251 39.3151C31.1251 38.1042 32.1088 37.1225 33.3223 37.1225C39.1199 37.1225 43.8198 32.4323 43.8198 26.6467C43.8198 25.4358 44.8035 24.4541 46.017 24.4541Z" fill="white"/>
<path fill-rule="evenodd" clip-rule="evenodd" d="M35.5193 46.0216C35.5193 47.2326 34.5355 48.2142 33.3221 48.2142C25.0975 48.2142 18.4302 41.5607 18.4302 33.3532C18.4302 32.1423 19.4139 31.1606 20.6274 31.1606C21.8408 31.1606 22.8245 32.1423 22.8245 33.3532C22.8245 39.1388 27.5244 43.829 33.3221 43.829C34.5355 43.829 35.5193 44.8107 35.5193 46.0216Z" fill="white"/>
<path fill-rule="evenodd" clip-rule="evenodd" d="M13.9825 35.5459C12.7691 35.5459 11.7854 34.5642 11.7854 33.3533C11.7854 25.1458 18.4527 18.4923 26.6773 18.4923C27.8907 18.4923 28.8744 19.4739 28.8744 20.6849C28.8744 21.8958 27.8907 22.8775 26.6773 22.8775C20.8796 22.8775 16.1797 27.5677 16.1797 33.3533C16.1797 34.5642 15.196 35.5459 13.9825 35.5459Z" fill="white"/>
</svg>
